# xmcd CD database file
#
# Track frame offsets:
#	182
#	14217
#	26100
#	37845
#	53492
#	62522
#	79650
#	149105
#	185185
#	202862
#	216087
#	231877
#	263822
#
# Disc length: 3756 seconds
#
# Revision: 0
# Processed by: cddbd v1.5.1PL0 Copyright (c) Steve Scherf et al.
# Submitted via: cdripper 1,0,15,908
#
DISCID=ba0eaa0d
DTITLE=Duke Ellington - JazzTime 37
DYEAR=1900
DGENRE=Jazz
TTITLE0=Chelsea Blues
TTITLE1=Raincheck
TTITLE2=Moon mist
TTITLE3=Jumpin' punkins
TTITLE4=Perdido
TTITLE5=Creole love call
TTITLE6=Mood indigo
TTITLE7=Take the A train
TTITLE8=Stompy Jones
TTITLE9=In a mellow tone
TTITLE10=East St. Louis toodle-oo
TTITLE11=Mr. Gentle and Mr. Cool
TTITLE12=I'm gonna go finishin'
EXTD=
EXTT0=
EXTT1=
EXTT2=
EXTT3=
EXTT4=
EXTT5=
EXTT6=
EXTT7=
EXTT8=
EXTT9=
EXTT10=
EXTT11=
EXTT12=
PLAYORDER=
